ffmpeg version 6.0-essentials_build-www.gyan.dev Copyright (c) 2000-2023 the FFmpeg developers
  built with gcc 12.2.0 (Rev10, Built by MSYS2 project)
  configuration: --enable-gpl --enable-version3 --enable-static --disable-w32threads --disable-autodetect --enable-fontconfig --enable-iconv --enable-gnutls --enable-libxml2 --enable-gmp --enable-lzma --enable-zlib --enable-libsrt --enable-libssh --enable-libzmq --enable-avisynth --enable-sdl2 --enable-libwebp --enable-libx264 --enable-libx265 --enable-libxvid --enable-libaom --enable-libopenjpeg --enable-libvpx --enable-libass --enable-libfreetype --enable-libfribidi --enable-libvidstab --enable-libvmaf --enable-libzimg --enable-amf --enable-cuda-llvm --enable-cuvid --enable-ffnvcodec --enable-nvdec --enable-nvenc --enable-d3d11va --enable-dxva2 --enable-libmfx --enable-libgme --enable-libopenmpt --enable-libopencore-amrwb --enable-libmp3lame --enable-libtheora --enable-libvo-amrwbenc --enable-libgsm --enable-libopencore-amrnb --enable-libopus --enable-libspeex --enable-libvorbis --enable-librubberband
  libavutil      58.  2.100 / 58.  2.100
  libavcodec     60.  3.100 / 60.  3.100
  libavformat    60.  3.100 / 60.  3.100
  libavdevice    60.  1.100 / 60.  1.100
  libavfilter     9.  3.100 /  9.  3.100
  libswscale      7.  1.100 /  7.  1.100
  libswresample   4. 10.100 /  4. 10.100
  libpostproc    57.  1.100 / 57.  1.100
ffmpeg stats and -progress period set to 10.
Guessed Channel Layout for Input Stream #0.0 : stereo
Input #0, dshow, from 'audio=Mixage stéréo (Realtek(R) Audio)':
  Duration: N/A, start: 296146.276000, bitrate: 1411 kb/s
  Stream #0:0: Audio: pcm_s16le, 44100 Hz, 2 channels, s16, 1411 kb/s
Stream mapping:
  Stream #0:0 -> #0:0 (pcm_s16le (native) -> opus (libopus))
Press [q] to stop, [?] for help
[libopus @ 0000019acebf8c40] No bit rate set. Defaulting to 96000 bps.
Output #0, rtp, to 'rtp://127.0.0.1:5005':
  Metadata:
    encoder         : Lavf60.3.100
  Stream #0:0: Audio: opus, 48000 Hz, stereo, s16, 96 kb/s
    Metadata:
      encoder         : Lavc60.3.100 libopus
SDP:
v=0
o=- 0 0 IN IP4 127.0.0.1
s=No Name
c=IN IP4 127.0.0.1
t=0 0
a=tool:libavformat 60.3.100
m=audio 5005 RTP/AVP 97
b=AS:96
a=rtpmap:97 opus/48000/2
a=fmtp:97 sprop-stereo=1

size=       5kB time=00:00:00.45 bitrate=  97.4kbits/s speed=N/A    size=     135kB time=00:00:10.96 bitrate= 100.6kbits/s speed= 1.1x    size=     264kB time=00:00:21.46 bitrate= 100.7kbits/s speed=1.05x    size=     387kB time=00:00:31.46 bitrate= 100.7kbits/s speed=1.03x    size=     516kB time=00:00:41.96 bitrate= 100.8kbits/s speed=1.02x    